<svg width="450" height="150" xmlns="http://www.w3.org/2000/svg">
 <g>
  <rect stroke="#000" height="25" width="75" y="25" x="25" stroke-width="1.5" fill="#fff"/>
  <rect stroke="#000" height="25" width="75" y="25" x="175" stroke-width="1.5" fill="#fff"/>
  <rect stroke="#000" height="25" width="75" y="75" x="175" stroke-width="1.5" fill="#fff"/>
  <rect stroke="#000" height="25" width="75" y="75" x="25" stroke-width="1.5" fill="#fff"/>
  <rect stroke="#000" height="25" width="75" y="25" x="325" stroke-width="1.5" fill="#fff"/>
  <rect stroke="#000" height="25" width="75" y="75" x="325" stroke-width="1.5" fill="#fff"/>
  <text font-size="12" y="42" x="47">车站A</text>
  <text font-size="12" y="42" x="197">车站B</text>
  <text font-size="12" y="92" x="197">车站C</text>
  <text font-size="12" y="92" x="47">车站D</text>
  <text font-size="12" y="42" x="347">车站E</text>
  <text font-size="12" y="92" x="347">车站F</text>
  <line y2="37.5" x2="175" y1="37.5" x1="100" stroke-width="1.5" stroke="#000"/>
  <line y2="87.5" x2="175" y1="87.5" x1="100" stroke-width="1.5" stroke="#000"/>
  <line y2="75" x2="62.5" y1="50" x1="62.5" stroke-width="1.5" stroke="#000"/>
  <line y2="75" x2="212.5" y1="50" x1="212.5" stroke-width="1.5" stroke="#000"/>
  <line y2="75" x2="175" y1="50" x1="100" stroke-width="1.5" stroke="#000"/>
  <line y2="37.5" x2="325" y1="37.5" x1="250" stroke-width="1.5" stroke="#000"/>
  <line y2="87.5" x2="325" y1="87.5" x1="250" stroke-width="1.5" stroke="#000"/>
  <line y2="75" x2="362.5" y1="50" x1="362.5" stroke-width="1.5" stroke="#000"/>
  <line y2="75" x2="325" y1="50" x1="250" stroke-width="1.5" stroke="#000"/>
  <text font-size="12" y="32.5" x="135" >6</text>
  <text font-size="12" y="65" x="215" >2</text>
  <text font-size="12" y="65" x="150" >11</text>
  <text font-size="12" y="65" x="65"  >3</text>
  <text font-size="12" y="100" x="135">4</text>
  <text font-size="12" y="32.5" x="285" >5</text>
  <text font-size="12" y="100" x="285">8</text>
  <text font-size="12" y="65" x="365" >3</text>
  <text font-size="12" y="65" x="295" >7</text>
 </g>
</svg>