<svg width="1365" height="546" xmlns="http://www.w3.org/2000/svg">    <g><rect x="0" y="0" width="37" height="37" fill="#eee" rx="3.7" ry="3.7"></rect><rect x="0" y="39" width="37" height="37" fill="#eee" rx="3.7" ry="3.7"></rect><rect x="0" y="78" width="37" height="37" fill="#eee" rx="3.7" ry="3.7"></rect><rect x="0" y="117" width="37" height="37" fill="#eee" rx="3.7" ry="3.7"></rect><rect x="0" y="156" width="37" height="37" fill="#eee" rx="3.7" ry="3.7"></rect><rect x="0" y="195" width="37" height="37" fill="#eee" rx="3.7" ry="3.7"></rect><rect x="0" y="234" width="37" height="37" fill="#eee" rx="3.7" ry="3.7"></rect><rect x="39" y="0" width="37" height="37" fill="#edd" rx="3.7" ry="3.7"></rect><rect x="39" y="39" width="37" height="37" fill="#eee" rx="3.7" ry="3.7"></rect><rect x="39" y="78" width="37" height="37" fill="#eee" rx="3.7" ry="3.7"></rect><rect x="39" y="117" width="37" height="37" fill="#eee" rx="3.7" ry="3.7"></rect><rect x="39" y="156" width="37" height="37" fill="#eee" rx="3.7" ry="3.7"></rect><rect x="39" y="195" width="37" height="37" fill="#eee" rx="3.7" ry="3.7"></rect><rect x="39" y="234" width="37" height="37" fill="#eee" rx="3.7" ry="3.7"></rect><rect x="78" y="0" width="37" height="37" fill="#eee" rx="3.7" ry="3.7"></rect><rect x="78" y="39" width="37" height="37" fill="#eee" rx="3.7" ry="3.7"></rect><rect x="78" y="78" width="37" height="37" fill="#eee" rx="3.7" ry="3.7"></rect><rect x="78" y="117" width="37" height="37" fill="#eee" rx="3.7" ry="3.7"></rect><rect x="78" y="156" width="37" height="37" fill="#eee" rx="3.7" ry="3.7"></rect><rect x="78" y="195" width="37" height="37" fill="#eee" rx="3.7" ry="3.7"></rect><rect x="78" y="234" width="37" height="37" fill="#eee" rx="3.7" ry="3.7"></rect><rect x="117" y="0" width="37" height="37" fill="#eee" rx="3.7" ry="3.7"></rect><rect x="117" y="39" width="37" height="37" fill="#eee" rx="3.7" ry="3.7"></rect><rect x="117" y="78" width="37" height="37" fill="#eee" rx="3.7" ry="3.7"></rect><rect x="117" y="117" width="37" height="37" fill="#eee" rx="3.7" ry="3.7"></rect><rect x="117" y="156" width="37" height="37" fill="#eee" rx="3.7" ry="3.7"></rect><rect x="117" y="195" width="37" height="37" fill="#eee" rx="3.7" ry="3.7"></rect><rect x="117" y="234" width="37" height="37" fill="#bbe" rx="3.7" ry="3.7"></rect><rect x="156" y="0" width="37" height="37" fill="#eee" rx="3.7" ry="3.7"></rect><rect x="156" y="39" width="37" height="37" fill="#eee" rx="3.7" ry="3.7"></rect><rect x="156" y="78" width="37" height="37" fill="#edd" rx="3.7" ry="3.7"></rect><rect x="156" y="117" width="37" height="37" fill="#edd" rx="3.7" ry="3.7"></rect><rect x="156" y="156" width="37" height="37" fill="#eee" rx="3.7" ry="3.7"></rect><rect x="156" y="195" width="37" height="37" fill="#edd" rx="3.7" ry="3.7"></rect><rect x="156" y="234" width="37" height="37" fill="#eee" rx="3.7" ry="3.7"></rect><rect x="195" y="0" width="37" height="37" fill="#eee" rx="3.7" ry="3.7"></rect><rect x="195" y="39" width="37" height="37" fill="#eee" rx="3.7" ry="3.7"></rect><rect x="195" y="78" width="37" height="37" fill="#eee" rx="3.7" ry="3.7"></rect><rect x="195" y="117" width="37" height="37" fill="#eee" rx="3.7" ry="3.7"></rect><rect x="195" y="156" width="37" height="37" fill="#eee" rx="3.7" ry="3.7"></rect><rect x="195" y="195" width="37" height="37" fill="#eee" rx="3.7" ry="3.7"></rect><rect x="195" y="234" width="37" height="37" fill="#eee" rx="3.7" ry="3.7"></rect><rect x="234" y="0" width="37" height="37" fill="#eee" rx="3.7" ry="3.7"></rect><rect x="234" y="39" width="37" height="37" fill="#eee" rx="3.7" ry="3.7"></rect><rect x="234" y="78" width="37" height="37" fill="#eee" rx="3.7" ry="3.7"></rect><rect x="234" y="117" width="37" height="37" fill="#eee" rx="3.7" ry="3.7"></rect><rect x="234" y="156" width="37" height="37" fill="#eee" rx="3.7" ry="3.7"></rect><rect x="234" y="195" width="37" height="37" fill="#eee" rx="3.7" ry="3.7"></rect><rect x="234" y="234" width="37" height="37" fill="#eee" rx="3.7" ry="3.7"></rect><rect x="273" y="0" width="37" height="37" fill="#eee" rx="3.7" ry="3.7"></rect><rect x="273" y="39" width="37" height="37" fill="#eee" rx="3.7" ry="3.7"></rect><rect x="273" y="78" width="37" height="37" fill="#eee" rx="3.7" ry="3.7"></rect><rect x="273" y="117" width="37" height="37" fill="#eee" rx="3.7" ry="3.7"></rect><rect x="273" y="156" width="37" height="37" fill="#eee" rx="3.7" ry="3.7"></rect><rect x="273" y="195" width="37" height="37" fill="#eee" rx="3.7" ry="3.7"></rect><rect x="273" y="234" width="37" height="37" fill="#eee" rx="3.7" ry="3.7"></rect><rect x="312" y="0" width="37" height="37" fill="#eee" rx="3.7" ry="3.7"></rect><rect x="312" y="39" width="37" height="37" fill="#eee" rx="3.7" ry="3.7"></rect><rect x="312" y="78" width="37" height="37" fill="#eee" rx="3.7" ry="3.7"></rect><rect x="312" y="117" width="37" height="37" fill="#eee" rx="3.7" ry="3.7"></rect><rect x="312" y="156" width="37" height="37" fill="#eee" rx="3.7" ry="3.7"></rect><rect x="312" y="195" width="37" height="37" fill="#eee" rx="3.7" ry="3.7"></rect><rect x="312" y="234" width="37" height="37" fill="#eee" rx="3.7" ry="3.7"></rect><rect x="351" y="0" width="37" height="37" fill="#eee" rx="3.7" ry="3.7"></rect><rect x="351" y="39" width="37" height="37" fill="#eee" rx="3.7" ry="3.7"></rect><rect x="351" y="78" width="37" height="37" fill="#eee" rx="3.7" ry="3.7"></rect><rect x="351" y="117" width="37" height="37" fill="#eee" rx="3.7" ry="3.7"></rect><rect x="351" y="156" width="37" height="37" fill="#eee" rx="3.7" ry="3.7"></rect><rect x="351" y="195" width="37" height="37" fill="#eee" rx="3.7" ry="3.7"></rect><rect x="351" y="234" width="37" height="37" fill="#eee" rx="3.7" ry="3.7"></rect><rect x="390" y="0" width="37" height="37" fill="#eee" rx="3.7" ry="3.7"></rect><rect x="390" y="39" width="37" height="37" fill="#eee" rx="3.7" ry="3.7"></rect><rect x="390" y="78" width="37" height="37" fill="#eee" rx="3.7" ry="3.7"></rect><rect x="390" y="117" width="37" height="37" fill="#eee" rx="3.7" ry="3.7"></rect><rect x="390" y="156" width="37" height="37" fill="#eee" rx="3.7" ry="3.7"></rect><rect x="390" y="195" width="37" height="37" fill="#77e" rx="3.7" ry="3.7"></rect><rect x="390" y="234" width="37" height="37" fill="#eee" rx="3.7" ry="3.7"></rect><rect x="429" y="0" width="37" height="37" fill="#eee" rx="3.7" ry="3.7"></rect><rect x="429" y="39" width="37" height="37" fill="#edd" rx="3.7" ry="3.7"></rect><rect x="429" y="78" width="37" height="37" fill="#ecc" rx="3.7" ry="3.7"></rect><rect x="429" y="117" width="37" height="37" fill="#eee" rx="3.7" ry="3.7"></rect><rect x="429" y="156" width="37" height="37" fill="#eee" rx="3.7" ry="3.7"></rect><rect x="429" y="195" width="37" height="37" fill="#edd" rx="3.7" ry="3.7"></rect><rect x="429" y="234" width="37" height="37" fill="#eee" rx="3.7" ry="3.7"></rect><rect x="468" y="0" width="37" height="37" fill="#98d" rx="3.7" ry="3.7"></rect><rect x="468" y="39" width="37" height="37" fill="#eee" rx="3.7" ry="3.7"></rect><rect x="468" y="78" width="37" height="37" fill="#ecc" rx="3.7" ry="3.7"></rect><rect x="468" y="117" width="37" height="37" fill="#eee" rx="3.7" ry="3.7"></rect><rect x="468" y="156" width="37" height="37" fill="#eee" rx="3.7" ry="3.7"></rect><rect x="468" y="195" width="37" height="37" fill="#eee" rx="3.7" ry="3.7"></rect><rect x="468" y="234" width="37" height="37" fill="#eee" rx="3.7" ry="3.7"></rect><rect x="507" y="0" width="37" height="37" fill="#aae" rx="3.7" ry="3.7"></rect><rect x="507" y="39" width="37" height="37" fill="#eee" rx="3.7" ry="3.7"></rect><rect x="507" y="78" width="37" height="37" fill="#eee" rx="3.7" ry="3.7"></rect><rect x="507" y="117" width="37" height="37" fill="#ebb" rx="3.7" ry="3.7"></rect><rect x="507" y="156" width="37" height="37" fill="#eee" rx="3.7" ry="3.7"></rect><rect x="507" y="195" width="37" height="37" fill="#ecc" rx="3.7" ry="3.7"></rect><rect x="507" y="234" width="37" height="37" fill="#eee" rx="3.7" ry="3.7"></rect><rect x="546" y="0" width="37" height="37" fill="#eee" rx="3.7" ry="3.7"></rect><rect x="546" y="39" width="37" height="37" fill="#edd" rx="3.7" ry="3.7"></rect><rect x="546" y="78" width="37" height="37" fill="#eee" rx="3.7" ry="3.7"></rect><rect x="546" y="117" width="37" height="37" fill="#eee" rx="3.7" ry="3.7"></rect><rect x="546" y="156" width="37" height="37" fill="#eee" rx="3.7" ry="3.7"></rect><rect x="546" y="195" width="37" height="37" fill="#eee" rx="3.7" ry="3.7"></rect><rect x="546" y="234" width="37" height="37" fill="#eee" rx="3.7" ry="3.7"></rect><rect x="585" y="0" width="37" height="37" fill="#eee" rx="3.7" ry="3.7"></rect><rect x="585" y="39" width="37" height="37" fill="#eee" rx="3.7" ry="3.7"></rect><rect x="585" y="78" width="37" height="37" fill="#eee" rx="3.7" ry="3.7"></rect><rect x="585" y="117" width="37" height="37" fill="#eee" rx="3.7" ry="3.7"></rect><rect x="585" y="156" width="37" height="37" fill="#eee" rx="3.7" ry="3.7"></rect><rect x="585" y="195" width="37" height="37" fill="#eee" rx="3.7" ry="3.7"></rect><rect x="585" y="234" width="37" height="37" fill="#eee" rx="3.7" ry="3.7"></rect><rect x="624" y="0" width="37" height="37" fill="#eee" rx="3.7" ry="3.7"></rect><rect x="624" y="39" width="37" height="37" fill="#eee" rx="3.7" ry="3.7"></rect><rect x="624" y="78" width="37" height="37" fill="#eee" rx="3.7" ry="3.7"></rect><rect x="624" y="117" width="37" height="37" fill="#eee" rx="3.7" ry="3.7"></rect><rect x="624" y="156" width="37" height="37" fill="#eee" rx="3.7" ry="3.7"></rect><rect x="624" y="195" width="37" height="37" fill="#eee" rx="3.7" ry="3.7"></rect><rect x="624" y="234" width="37" height="37" fill="#eee" rx="3.7" ry="3.7"></rect><rect x="663" y="0" width="37" height="37" fill="#edd" rx="3.7" ry="3.7"></rect><rect x="663" y="39" width="37" height="37" fill="#eee" rx="3.7" ry="3.7"></rect><rect x="663" y="78" width="37" height="37" fill="#eee" rx="3.7" ry="3.7"></rect><rect x="663" y="117" width="37" height="37" fill="#eee" rx="3.7" ry="3.7"></rect><rect x="663" y="156" width="37" height="37" fill="#eee" rx="3.7" ry="3.7"></rect><rect x="663" y="195" width="37" height="37" fill="#eee" rx="3.7" ry="3.7"></rect><rect x="663" y="234" width="37" height="37" fill="#eee" rx="3.7" ry="3.7"></rect><rect x="702" y="0" width="37" height="37" fill="#eee" rx="3.7" ry="3.7"></rect><rect x="702" y="39" width="37" height="37" fill="#eee" rx="3.7" ry="3.7"></rect><rect x="702" y="78" width="37" height="37" fill="#eee" rx="3.7" ry="3.7"></rect><rect x="702" y="117" width="37" height="37" fill="#eee" rx="3.7" ry="3.7"></rect><rect x="702" y="156" width="37" height="37" fill="#eee" rx="3.7" ry="3.7"></rect><rect x="702" y="195" width="37" height="37" fill="#eee" rx="3.7" ry="3.7"></rect><rect x="702" y="234" width="37" height="37" fill="#eee" rx="3.7" ry="3.7"></rect><rect x="741" y="0" width="37" height="37" fill="#eee" rx="3.7" ry="3.7"></rect><rect x="741" y="39" width="37" height="37" fill="#eee" rx="3.7" ry="3.7"></rect><rect x="741" y="78" width="37" height="37" fill="#eee" rx="3.7" ry="3.7"></rect><rect x="741" y="117" width="37" height="37" fill="#edd" rx="3.7" ry="3.7"></rect><rect x="741" y="156" width="37" height="37" fill="#eee" rx="3.7" ry="3.7"></rect><rect x="741" y="195" width="37" height="37" fill="#eee" rx="3.7" ry="3.7"></rect><rect x="741" y="234" width="37" height="37" fill="#eee" rx="3.7" ry="3.7"></rect><rect x="780" y="0" width="37" height="37" fill="#eee" rx="3.7" ry="3.7"></rect><rect x="780" y="39" width="37" height="37" fill="#eee" rx="3.7" ry="3.7"></rect><rect x="780" y="78" width="37" height="37" fill="#edd" rx="3.7" ry="3.7"></rect><rect x="780" y="117" width="37" height="37" fill="#eee" rx="3.7" ry="3.7"></rect><rect x="780" y="156" width="37" height="37" fill="#eee" rx="3.7" ry="3.7"></rect><rect x="780" y="195" width="37" height="37" fill="#eee" rx="3.7" ry="3.7"></rect><rect x="780" y="234" width="37" height="37" fill="#eee" rx="3.7" ry="3.7"></rect><rect x="819" y="0" width="37" height="37" fill="#eee" rx="3.7" ry="3.7"></rect><rect x="819" y="39" width="37" height="37" fill="#eee" rx="3.7" ry="3.7"></rect><rect x="819" y="78" width="37" height="37" fill="#eee" rx="3.7" ry="3.7"></rect><rect x="819" y="117" width="37" height="37" fill="#eee" rx="3.7" ry="3.7"></rect><rect x="819" y="156" width="37" height="37" fill="#eee" rx="3.7" ry="3.7"></rect><rect x="819" y="195" width="37" height="37" fill="#eee" rx="3.7" ry="3.7"></rect><rect x="819" y="234" width="37" height="37" fill="#eee" rx="3.7" ry="3.7"></rect><rect x="858" y="0" width="37" height="37" fill="#eee" rx="3.7" ry="3.7"></rect><rect x="858" y="39" width="37" height="37" fill="#eee" rx="3.7" ry="3.7"></rect><rect x="858" y="78" width="37" height="37" fill="#eee" rx="3.7" ry="3.7"></rect><rect x="858" y="117" width="37" height="37" fill="#eee" rx="3.7" ry="3.7"></rect><rect x="858" y="156" width="37" height="37" fill="#eee" rx="3.7" ry="3.7"></rect><rect x="858" y="195" width="37" height="37" fill="#eee" rx="3.7" ry="3.7"></rect><rect x="858" y="234" width="37" height="37" fill="#eee" rx="3.7" ry="3.7"></rect><rect x="897" y="0" width="37" height="37" fill="#eee" rx="3.7" ry="3.7"></rect><rect x="897" y="39" width="37" height="37" fill="#eee" rx="3.7" ry="3.7"></rect><rect x="897" y="78" width="37" height="37" fill="#eee" rx="3.7" ry="3.7"></rect><rect x="897" y="117" width="37" height="37" fill="#eee" rx="3.7" ry="3.7"></rect><rect x="897" y="156" width="37" height="37" fill="#eee" rx="3.7" ry="3.7"></rect><rect x="897" y="195" width="37" height="37" fill="#eee" rx="3.7" ry="3.7"></rect><rect x="897" y="234" width="37" height="37" fill="#eee" rx="3.7" ry="3.7"></rect><rect x="936" y="0" width="37" height="37" fill="#eee" rx="3.7" ry="3.7"></rect><rect x="936" y="39" width="37" height="37" fill="#eee" rx="3.7" ry="3.7"></rect><rect x="936" y="78" width="37" height="37" fill="#eee" rx="3.7" ry="3.7"></rect><rect x="936" y="117" width="37" height="37" fill="#eee" rx="3.7" ry="3.7"></rect><rect x="936" y="156" width="37" height="37" fill="#eee" rx="3.7" ry="3.7"></rect><rect x="936" y="195" width="37" height="37" fill="#eee" rx="3.7" ry="3.7"></rect><rect x="936" y="234" width="37" height="37" fill="#66e" rx="3.7" ry="3.7"></rect><rect x="975" y="0" width="37" height="37" fill="#11e" rx="3.7" ry="3.7"></rect><rect x="975" y="39" width="37" height="37" fill="#eee" rx="3.7" ry="3.7"></rect><rect x="975" y="78" width="37" height="37" fill="#eee" rx="3.7" ry="3.7"></rect><rect x="975" y="117" width="37" height="37" fill="#eee" rx="3.7" ry="3.7"></rect><rect x="975" y="156" width="37" height="37" fill="#dbc" rx="3.7" ry="3.7"></rect><rect x="975" y="195" width="37" height="37" fill="#eee" rx="3.7" ry="3.7"></rect><rect x="975" y="234" width="37" height="37" fill="#eee" rx="3.7" ry="3.7"></rect><rect x="1014" y="0" width="37" height="37" fill="#eee" rx="3.7" ry="3.7"></rect><rect x="1014" y="39" width="37" height="37" fill="#eee" rx="3.7" ry="3.7"></rect><rect x="1014" y="78" width="37" height="37" fill="#edd" rx="3.7" ry="3.7"></rect><rect x="1014" y="117" width="37" height="37" fill="#eee" rx="3.7" ry="3.7"></rect><rect x="1014" y="156" width="37" height="37" fill="#eee" rx="3.7" ry="3.7"></rect><rect x="1014" y="195" width="37" height="37" fill="#eee" rx="3.7" ry="3.7"></rect><rect x="1014" y="234" width="37" height="37" fill="#aae" rx="3.7" ry="3.7"></rect><rect x="1053" y="0" width="37" height="37" fill="#bbe" rx="3.7" ry="3.7"></rect><rect x="1053" y="39" width="37" height="37" fill="#eee" rx="3.7" ry="3.7"></rect><rect x="1053" y="78" width="37" height="37" fill="#95a" rx="3.7" ry="3.7"></rect><rect x="1053" y="117" width="37" height="37" fill="#eee" rx="3.7" ry="3.7"></rect><rect x="1053" y="156" width="37" height="37" fill="#ecc" rx="3.7" ry="3.7"></rect><rect x="1053" y="195" width="37" height="37" fill="#eee" rx="3.7" ry="3.7"></rect><rect x="1053" y="234" width="37" height="37" fill="#eee" rx="3.7" ry="3.7"></rect><rect x="1092" y="0" width="37" height="37" fill="#65d" rx="3.7" ry="3.7"></rect><rect x="1092" y="39" width="37" height="37" fill="#edd" rx="3.7" ry="3.7"></rect><rect x="1092" y="78" width="37" height="37" fill="#eee" rx="3.7" ry="3.7"></rect><rect x="1092" y="117" width="37" height="37" fill="#ecc" rx="3.7" ry="3.7"></rect><rect x="1092" y="156" width="37" height="37" fill="#ecc" rx="3.7" ry="3.7"></rect><rect x="1092" y="195" width="37" height="37" fill="#ecc" rx="3.7" ry="3.7"></rect><rect x="1092" y="234" width="37" height="37" fill="#eee" rx="3.7" ry="3.7"></rect><rect x="1131" y="0" width="37" height="37" fill="#55e" rx="3.7" ry="3.7"></rect><rect x="1131" y="39" width="37" height="37" fill="#e55" rx="3.7" ry="3.7"></rect><rect x="1131" y="78" width="37" height="37" fill="#eee" rx="3.7" ry="3.7"></rect><rect x="1131" y="117" width="37" height="37" fill="#eee" rx="3.7" ry="3.7"></rect><rect x="1131" y="156" width="37" height="37" fill="#ecc" rx="3.7" ry="3.7"></rect><rect x="1131" y="195" width="37" height="37" fill="#edd" rx="3.7" ry="3.7"></rect><rect x="1131" y="234" width="37" height="37" fill="#dde" rx="3.7" ry="3.7"></rect><rect x="1170" y="0" width="37" height="37" fill="#eee" rx="3.7" ry="3.7"></rect><rect x="1170" y="39" width="37" height="37" fill="#dde" rx="3.7" ry="3.7"></rect><rect x="1170" y="78" width="37" height="37" fill="#eee" rx="3.7" ry="3.7"></rect><rect x="1170" y="117" width="37" height="37" fill="#eee" rx="3.7" ry="3.7"></rect><rect x="1170" y="156" width="37" height="37" fill="#eee" rx="3.7" ry="3.7"></rect><rect x="1170" y="195" width="37" height="37" fill="#edd" rx="3.7" ry="3.7"></rect><rect x="1170" y="234" width="37" height="37" fill="#eee" rx="3.7" ry="3.7"></rect><rect x="1209" y="0" width="37" height="37" fill="#eee" rx="3.7" ry="3.7"></rect><rect x="1209" y="39" width="37" height="37" fill="#eee" rx="3.7" ry="3.7"></rect><rect x="1209" y="78" width="37" height="37" fill="#eee" rx="3.7" ry="3.7"></rect><rect x="1209" y="117" width="37" height="37" fill="#eee" rx="3.7" ry="3.7"></rect><rect x="1209" y="156" width="37" height="37" fill="#eee" rx="3.7" ry="3.7"></rect><rect x="1209" y="195" width="37" height="37" fill="#eee" rx="3.7" ry="3.7"></rect><rect x="1209" y="234" width="37" height="37" fill="#eee" rx="3.7" ry="3.7"></rect><rect x="1248" y="0" width="37" height="37" fill="#eee" rx="3.7" ry="3.7"></rect><rect x="1248" y="39" width="37" height="37" fill="#edd" rx="3.7" ry="3.7"></rect><rect x="1248" y="78" width="37" height="37" fill="#eee" rx="3.7" ry="3.7"></rect><rect x="1248" y="117" width="37" height="37" fill="#eee" rx="3.7" ry="3.7"></rect><rect x="1248" y="156" width="37" height="37" fill="#eee" rx="3.7" ry="3.7"></rect><rect x="1248" y="195" width="37" height="37" fill="#eee" rx="3.7" ry="3.7"></rect><rect x="1248" y="234" width="37" height="37" fill="#eee" rx="3.7" ry="3.7"></rect><rect x="1287" y="0" width="37" height="37" fill="#eee" rx="3.7" ry="3.7"></rect><rect x="1287" y="39" width="37" height="37" fill="#eee" rx="3.7" ry="3.7"></rect><rect x="1287" y="78" width="37" height="37" fill="#dcd" rx="3.7" ry="3.7"></rect><rect x="1287" y="117" width="37" height="37" fill="#eee" rx="3.7" ry="3.7"></rect><rect x="1287" y="156" width="37" height="37" fill="#eee" rx="3.7" ry="3.7"></rect><rect x="1287" y="195" width="37" height="37" fill="#eee" rx="3.7" ry="3.7"></rect><rect x="1287" y="234" width="37" height="37" fill="#bad" rx="3.7" ry="3.7"></rect><rect x="1326" y="0" width="37" height="37" fill="#eee" rx="3.7" ry="3.7"></rect><rect x="1326" y="39" width="37" height="37" fill="#eee" rx="3.7" ry="3.7"></rect><rect x="1326" y="78" width="37" height="37" fill="#eee" rx="3.7" ry="3.7"></rect><rect x="1326" y="117" width="37" height="37" fill="#eee" rx="3.7" ry="3.7"></rect><rect x="1326" y="156" width="37" height="37" fill="#ebb" rx="3.7" ry="3.7"></rect><rect x="1326" y="195" width="37" height="37" fill="#eee" rx="3.7" ry="3.7"></rect><rect x="1326" y="234" width="37" height="37" fill="#eee" rx="3.7" ry="3.7"></rect><rect x="0" y="273" width="37" height="37" fill="#eee" rx="3.7" ry="3.7"></rect><rect x="0" y="312" width="37" height="37" fill="#dde" rx="3.7" ry="3.7"></rect><rect x="0" y="351" width="37" height="37" fill="#eee" rx="3.7" ry="3.7"></rect><rect x="0" y="390" width="37" height="37" fill="#eee" rx="3.7" ry="3.7"></rect><rect x="0" y="429" width="37" height="37" fill="#eee" rx="3.7" ry="3.7"></rect><rect x="0" y="468" width="37" height="37" fill="#eee" rx="3.7" ry="3.7"></rect><rect x="0" y="507" width="37" height="37" fill="#eee" rx="3.7" ry="3.7"></rect><rect x="39" y="273" width="37" height="37" fill="#eee" rx="3.7" ry="3.7"></rect><rect x="39" y="312" width="37" height="37" fill="#eee" rx="3.7" ry="3.7"></rect><rect x="39" y="351" width="37" height="37" fill="#eee" rx="3.7" ry="3.7"></rect><rect x="39" y="390" width="37" height="37" fill="#edd" rx="3.7" ry="3.7"></rect><rect x="39" y="429" width="37" height="37" fill="#eee" rx="3.7" ry="3.7"></rect><rect x="39" y="468" width="37" height="37" fill="#eee" rx="3.7" ry="3.7"></rect><rect x="39" y="507" width="37" height="37" fill="#eee" rx="3.7" ry="3.7"></rect><rect x="78" y="273" width="37" height="37" fill="#eee" rx="3.7" ry="3.7"></rect><rect x="78" y="312" width="37" height="37" fill="#edd" rx="3.7" ry="3.7"></rect><rect x="78" y="351" width="37" height="37" fill="#eee" rx="3.7" ry="3.7"></rect><rect x="78" y="390" width="37" height="37" fill="#eee" rx="3.7" ry="3.7"></rect><rect x="78" y="429" width="37" height="37" fill="#eee" rx="3.7" ry="3.7"></rect><rect x="78" y="468" width="37" height="37" fill="#eee" rx="3.7" ry="3.7"></rect><rect x="78" y="507" width="37" height="37" fill="#eee" rx="3.7" ry="3.7"></rect><rect x="117" y="273" width="37" height="37" fill="#eee" rx="3.7" ry="3.7"></rect><rect x="117" y="312" width="37" height="37" fill="#eee" rx="3.7" ry="3.7"></rect><rect x="117" y="351" width="37" height="37" fill="#eee" rx="3.7" ry="3.7"></rect><rect x="117" y="390" width="37" height="37" fill="#ecc" rx="3.7" ry="3.7"></rect><rect x="117" y="429" width="37" height="37" fill="#eee" rx="3.7" ry="3.7"></rect><rect x="117" y="468" width="37" height="37" fill="#eee" rx="3.7" ry="3.7"></rect><rect x="117" y="507" width="37" height="37" fill="#eee" rx="3.7" ry="3.7"></rect><rect x="156" y="273" width="37" height="37" fill="#eee" rx="3.7" ry="3.7"></rect><rect x="156" y="312" width="37" height="37" fill="#eee" rx="3.7" ry="3.7"></rect><rect x="156" y="351" width="37" height="37" fill="#eee" rx="3.7" ry="3.7"></rect><rect x="156" y="390" width="37" height="37" fill="#eee" rx="3.7" ry="3.7"></rect><rect x="156" y="429" width="37" height="37" fill="#eee" rx="3.7" ry="3.7"></rect><rect x="156" y="468" width="37" height="37" fill="#eee" rx="3.7" ry="3.7"></rect><rect x="156" y="507" width="37" height="37" fill="#eee" rx="3.7" ry="3.7"></rect><rect x="195" y="273" width="37" height="37" fill="#eee" rx="3.7" ry="3.7"></rect><rect x="195" y="312" width="37" height="37" fill="#eee" rx="3.7" ry="3.7"></rect><rect x="195" y="351" width="37" height="37" fill="#eee" rx="3.7" ry="3.7"></rect><rect x="195" y="390" width="37" height="37" fill="#eee" rx="3.7" ry="3.7"></rect><rect x="195" y="429" width="37" height="37" fill="#eee" rx="3.7" ry="3.7"></rect><rect x="195" y="468" width="37" height="37" fill="#eee" rx="3.7" ry="3.7"></rect><rect x="195" y="507" width="37" height="37" fill="#edd" rx="3.7" ry="3.7"></rect><rect x="234" y="273" width="37" height="37" fill="#eee" rx="3.7" ry="3.7"></rect><rect x="234" y="312" width="37" height="37" fill="#eee" rx="3.7" ry="3.7"></rect><rect x="234" y="351" width="37" height="37" fill="#eee" rx="3.7" ry="3.7"></rect><rect x="234" y="390" width="37" height="37" fill="#eee" rx="3.7" ry="3.7"></rect><rect x="234" y="429" width="37" height="37" fill="#eee" rx="3.7" ry="3.7"></rect><rect x="234" y="468" width="37" height="37" fill="#eee" rx="3.7" ry="3.7"></rect><rect x="234" y="507" width="37" height="37" fill="#eee" rx="3.7" ry="3.7"></rect><rect x="273" y="273" width="37" height="37" fill="#eee" rx="3.7" ry="3.7"></rect><rect x="273" y="312" width="37" height="37" fill="#eee" rx="3.7" ry="3.7"></rect><rect x="273" y="351" width="37" height="37" fill="#eee" rx="3.7" ry="3.7"></rect><rect x="273" y="390" width="37" height="37" fill="#eee" rx="3.7" ry="3.7"></rect><rect x="273" y="429" width="37" height="37" fill="#eee" rx="3.7" ry="3.7"></rect><rect x="273" y="468" width="37" height="37" fill="#eee" rx="3.7" ry="3.7"></rect><rect x="273" y="507" width="37" height="37" fill="#eee" rx="3.7" ry="3.7"></rect><rect x="312" y="273" width="37" height="37" fill="#eee" rx="3.7" ry="3.7"></rect><rect x="312" y="312" width="37" height="37" fill="#eee" rx="3.7" ry="3.7"></rect><rect x="312" y="351" width="37" height="37" fill="#eee" rx="3.7" ry="3.7"></rect><rect x="312" y="390" width="37" height="37" fill="#eee" rx="3.7" ry="3.7"></rect><rect x="312" y="429" width="37" height="37" fill="#eee" rx="3.7" ry="3.7"></rect><rect x="312" y="468" width="37" height="37" fill="#66e" rx="3.7" ry="3.7"></rect><rect x="312" y="507" width="37" height="37" fill="#eee" rx="3.7" ry="3.7"></rect><rect x="351" y="273" width="37" height="37" fill="#eee" rx="3.7" ry="3.7"></rect><rect x="351" y="312" width="37" height="37" fill="#eee" rx="3.7" ry="3.7"></rect><rect x="351" y="351" width="37" height="37" fill="#eee" rx="3.7" ry="3.7"></rect><rect x="351" y="390" width="37" height="37" fill="#bad" rx="3.7" ry="3.7"></rect><rect x="351" y="429" width="37" height="37" fill="#eee" rx="3.7" ry="3.7"></rect><rect x="351" y="468" width="37" height="37" fill="#dde" rx="3.7" ry="3.7"></rect><rect x="351" y="507" width="37" height="37" fill="#eee" rx="3.7" ry="3.7"></rect><rect x="390" y="273" width="37" height="37" fill="#eee" rx="3.7" ry="3.7"></rect><rect x="390" y="312" width="37" height="37" fill="#bbe" rx="3.7" ry="3.7"></rect><rect x="390" y="351" width="37" height="37" fill="#eee" rx="3.7" ry="3.7"></rect><rect x="390" y="390" width="37" height="37" fill="#edd" rx="3.7" ry="3.7"></rect><rect x="390" y="429" width="37" height="37" fill="#99e" rx="3.7" ry="3.7"></rect><rect x="390" y="468" width="37" height="37" fill="#eee" rx="3.7" ry="3.7"></rect><rect x="390" y="507" width="37" height="37" fill="#88e" rx="3.7" ry="3.7"></rect><rect x="429" y="273" width="37" height="37" fill="#66e" rx="3.7" ry="3.7"></rect><rect x="429" y="312" width="37" height="37" fill="#edd" rx="3.7" ry="3.7"></rect><rect x="429" y="351" width="37" height="37" fill="#ecc" rx="3.7" ry="3.7"></rect><rect x="429" y="390" width="37" height="37" fill="#eee" rx="3.7" ry="3.7"></rect><rect x="429" y="429" width="37" height="37" fill="#eee" rx="3.7" ry="3.7"></rect><rect x="429" y="468" width="37" height="37" fill="#eee" rx="3.7" ry="3.7"></rect><rect x="429" y="507" width="37" height="37" fill="#99e" rx="3.7" ry="3.7"></rect><rect x="468" y="273" width="37" height="37" fill="#ecc" rx="3.7" ry="3.7"></rect><rect x="468" y="312" width="37" height="37" fill="#eee" rx="3.7" ry="3.7"></rect><rect x="468" y="351" width="37" height="37" fill="#edd" rx="3.7" ry="3.7"></rect><rect x="468" y="390" width="37" height="37" fill="#edd" rx="3.7" ry="3.7"></rect><rect x="468" y="429" width="37" height="37" fill="#eee" rx="3.7" ry="3.7"></rect><rect x="468" y="468" width="37" height="37" fill="#a8c" rx="3.7" ry="3.7"></rect><rect x="468" y="507" width="37" height="37" fill="#edd" rx="3.7" ry="3.7"></rect><rect x="507" y="273" width="37" height="37" fill="#eee" rx="3.7" ry="3.7"></rect><rect x="507" y="312" width="37" height="37" fill="#eee" rx="3.7" ry="3.7"></rect><rect x="507" y="351" width="37" height="37" fill="#edd" rx="3.7" ry="3.7"></rect><rect x="507" y="390" width="37" height="37" fill="#eee" rx="3.7" ry="3.7"></rect><rect x="507" y="429" width="37" height="37" fill="#eee" rx="3.7" ry="3.7"></rect><rect x="507" y="468" width="37" height="37" fill="#eee" rx="3.7" ry="3.7"></rect><rect x="507" y="507" width="37" height="37" fill="#55e" rx="3.7" ry="3.7"></rect><rect x="546" y="273" width="37" height="37" fill="#eee" rx="3.7" ry="3.7"></rect><rect x="546" y="312" width="37" height="37" fill="#edd" rx="3.7" ry="3.7"></rect><rect x="546" y="351" width="37" height="37" fill="#eee" rx="3.7" ry="3.7"></rect><rect x="546" y="390" width="37" height="37" fill="#edd" rx="3.7" ry="3.7"></rect><rect x="546" y="429" width="37" height="37" fill="#eee" rx="3.7" ry="3.7"></rect><rect x="546" y="468" width="37" height="37" fill="#edd" rx="3.7" ry="3.7"></rect><rect x="546" y="507" width="37" height="37" fill="#eee" rx="3.7" ry="3.7"></rect><rect x="585" y="273" width="37" height="37" fill="#eee" rx="3.7" ry="3.7"></rect><rect x="585" y="312" width="37" height="37" fill="#edd" rx="3.7" ry="3.7"></rect><rect x="585" y="351" width="37" height="37" fill="#eee" rx="3.7" ry="3.7"></rect><rect x="585" y="390" width="37" height="37" fill="#eee" rx="3.7" ry="3.7"></rect><rect x="585" y="429" width="37" height="37" fill="#ebb" rx="3.7" ry="3.7"></rect><rect x="585" y="468" width="37" height="37" fill="#eee" rx="3.7" ry="3.7"></rect><rect x="585" y="507" width="37" height="37" fill="#edd" rx="3.7" ry="3.7"></rect><rect x="624" y="273" width="37" height="37" fill="#eee" rx="3.7" ry="3.7"></rect><rect x="624" y="312" width="37" height="37" fill="#eee" rx="3.7" ry="3.7"></rect><rect x="624" y="351" width="37" height="37" fill="#edd" rx="3.7" ry="3.7"></rect><rect x="624" y="390" width="37" height="37" fill="#eee" rx="3.7" ry="3.7"></rect><rect x="624" y="429" width="37" height="37" fill="#eee" rx="3.7" ry="3.7"></rect><rect x="624" y="468" width="37" height="37" fill="#eee" rx="3.7" ry="3.7"></rect><rect x="624" y="507" width="37" height="37" fill="#edd" rx="3.7" ry="3.7"></rect><rect x="663" y="273" width="37" height="37" fill="#eee" rx="3.7" ry="3.7"></rect><rect x="663" y="312" width="37" height="37" fill="#eee" rx="3.7" ry="3.7"></rect><rect x="663" y="351" width="37" height="37" fill="#eee" rx="3.7" ry="3.7"></rect><rect x="663" y="390" width="37" height="37" fill="#eee" rx="3.7" ry="3.7"></rect><rect x="663" y="429" width="37" height="37" fill="#eee" rx="3.7" ry="3.7"></rect><rect x="663" y="468" width="37" height="37" fill="#eee" rx="3.7" ry="3.7"></rect><rect x="663" y="507" width="37" height="37" fill="#edd" rx="3.7" ry="3.7"></rect><rect x="702" y="273" width="37" height="37" fill="#eee" rx="3.7" ry="3.7"></rect><rect x="702" y="312" width="37" height="37" fill="#eee" rx="3.7" ry="3.7"></rect><rect x="702" y="351" width="37" height="37" fill="#eee" rx="3.7" ry="3.7"></rect><rect x="702" y="390" width="37" height="37" fill="#eee" rx="3.7" ry="3.7"></rect><rect x="702" y="429" width="37" height="37" fill="#eee" rx="3.7" ry="3.7"></rect><rect x="702" y="468" width="37" height="37" fill="#eee" rx="3.7" ry="3.7"></rect><rect x="702" y="507" width="37" height="37" fill="#eee" rx="3.7" ry="3.7"></rect><rect x="741" y="273" width="37" height="37" fill="#bbe" rx="3.7" ry="3.7"></rect><rect x="741" y="312" width="37" height="37" fill="#eee" rx="3.7" ry="3.7"></rect><rect x="741" y="351" width="37" height="37" fill="#eee" rx="3.7" ry="3.7"></rect><rect x="741" y="390" width="37" height="37" fill="#eee" rx="3.7" ry="3.7"></rect><rect x="741" y="429" width="37" height="37" fill="#eee" rx="3.7" ry="3.7"></rect><rect x="741" y="468" width="37" height="37" fill="#eee" rx="3.7" ry="3.7"></rect><rect x="741" y="507" width="37" height="37" fill="#eee" rx="3.7" ry="3.7"></rect><rect x="780" y="273" width="37" height="37" fill="#cbd" rx="3.7" ry="3.7"></rect><rect x="780" y="312" width="37" height="37" fill="#eee" rx="3.7" ry="3.7"></rect><rect x="780" y="351" width="37" height="37" fill="#eee" rx="3.7" ry="3.7"></rect><rect x="780" y="390" width="37" height="37" fill="#eee" rx="3.7" ry="3.7"></rect><rect x="780" y="429" width="37" height="37" fill="#edd" rx="3.7" ry="3.7"></rect><rect x="780" y="468" width="37" height="37" fill="#eee" rx="3.7" ry="3.7"></rect><rect x="780" y="507" width="37" height="37" fill="#eee" rx="3.7" ry="3.7"></rect><rect x="819" y="273" width="37" height="37" fill="#eee" rx="3.7" ry="3.7"></rect><rect x="819" y="312" width="37" height="37" fill="#eee" rx="3.7" ry="3.7"></rect><rect x="819" y="351" width="37" height="37" fill="#eee" rx="3.7" ry="3.7"></rect><rect x="819" y="390" width="37" height="37" fill="#eee" rx="3.7" ry="3.7"></rect><rect x="819" y="429" width="37" height="37" fill="#eee" rx="3.7" ry="3.7"></rect><rect x="819" y="468" width="37" height="37" fill="#eee" rx="3.7" ry="3.7"></rect><rect x="819" y="507" width="37" height="37" fill="#eee" rx="3.7" ry="3.7"></rect><rect x="858" y="273" width="37" height="37" fill="#88e" rx="3.7" ry="3.7"></rect><rect x="858" y="312" width="37" height="37" fill="#eee" rx="3.7" ry="3.7"></rect><rect x="858" y="351" width="37" height="37" fill="#b9c" rx="3.7" ry="3.7"></rect><rect x="858" y="390" width="37" height="37" fill="#edd" rx="3.7" ry="3.7"></rect><rect x="858" y="429" width="37" height="37" fill="#dcd" rx="3.7" ry="3.7"></rect><rect x="858" y="468" width="37" height="37" fill="#eee" rx="3.7" ry="3.7"></rect><rect x="858" y="507" width="37" height="37" fill="#eee" rx="3.7" ry="3.7"></rect><rect x="897" y="273" width="37" height="37" fill="#edd" rx="3.7" ry="3.7"></rect><rect x="897" y="312" width="37" height="37" fill="#eee" rx="3.7" ry="3.7"></rect><rect x="897" y="351" width="37" height="37" fill="#eee" rx="3.7" ry="3.7"></rect><rect x="897" y="390" width="37" height="37" fill="#edd" rx="3.7" ry="3.7"></rect><rect x="897" y="429" width="37" height="37" fill="#eee" rx="3.7" ry="3.7"></rect><rect x="897" y="468" width="37" height="37" fill="#bad" rx="3.7" ry="3.7"></rect><rect x="897" y="507" width="37" height="37" fill="#eee" rx="3.7" ry="3.7"></rect><rect x="936" y="273" width="37" height="37" fill="#eee" rx="3.7" ry="3.7"></rect><rect x="936" y="312" width="37" height="37" fill="#eaa" rx="3.7" ry="3.7"></rect><rect x="936" y="351" width="37" height="37" fill="#eee" rx="3.7" ry="3.7"></rect><rect x="936" y="390" width="37" height="37" fill="#eee" rx="3.7" ry="3.7"></rect><rect x="936" y="429" width="37" height="37" fill="#eee" rx="3.7" ry="3.7"></rect><rect x="936" y="468" width="37" height="37" fill="#eee" rx="3.7" ry="3.7"></rect><rect x="936" y="507" width="37" height="37" fill="#eee" rx="3.7" ry="3.7"></rect><rect x="975" y="273" width="37" height="37" fill="#edd" rx="3.7" ry="3.7"></rect><rect x="975" y="312" width="37" height="37" fill="#cbd" rx="3.7" ry="3.7"></rect><rect x="975" y="351" width="37" height="37" fill="#eee" rx="3.7" ry="3.7"></rect><rect x="975" y="390" width="37" height="37" fill="#eee" rx="3.7" ry="3.7"></rect><rect x="975" y="429" width="37" height="37" fill="#eee" rx="3.7" ry="3.7"></rect><rect x="975" y="468" width="37" height="37" fill="#eee" rx="3.7" ry="3.7"></rect><rect x="975" y="507" width="37" height="37" fill="#eee" rx="3.7" ry="3.7"></rect><rect x="1014" y="273" width="37" height="37" fill="#eee" rx="3.7" ry="3.7"></rect><rect x="1014" y="312" width="37" height="37" fill="#edd" rx="3.7" ry="3.7"></rect><rect x="1014" y="351" width="37" height="37" fill="#eee" rx="3.7" ry="3.7"></rect><rect x="1014" y="390" width="37" height="37" fill="#eee" rx="3.7" ry="3.7"></rect><rect x="1014" y="429" width="37" height="37" fill="#eee" rx="3.7" ry="3.7"></rect><rect x="1014" y="468" width="37" height="37" fill="#eee" rx="3.7" ry="3.7"></rect><rect x="1014" y="507" width="37" height="37" fill="#eee" rx="3.7" ry="3.7"></rect><rect x="1053" y="273" width="37" height="37" fill="#eee" rx="3.7" ry="3.7"></rect><rect x="1053" y="312" width="37" height="37" fill="#eee" rx="3.7" ry="3.7"></rect><rect x="1053" y="351" width="37" height="37" fill="#edd" rx="3.7" ry="3.7"></rect><rect x="1053" y="390" width="37" height="37" fill="#cce" rx="3.7" ry="3.7"></rect><rect x="1053" y="429" width="37" height="37" fill="#edd" rx="3.7" ry="3.7"></rect><rect x="1053" y="468" width="37" height="37" fill="#eee" rx="3.7" ry="3.7"></rect><rect x="1053" y="507" width="37" height="37" fill="#cbd" rx="3.7" ry="3.7"></rect><rect x="1092" y="273" width="37" height="37" fill="#eee" rx="3.7" ry="3.7"></rect><rect x="1092" y="312" width="37" height="37" fill="#eee" rx="3.7" ry="3.7"></rect><rect x="1092" y="351" width="37" height="37" fill="#eee" rx="3.7" ry="3.7"></rect><rect x="1092" y="390" width="37" height="37" fill="#eee" rx="3.7" ry="3.7"></rect><rect x="1092" y="429" width="37" height="37" fill="#eee" rx="3.7" ry="3.7"></rect><rect x="1092" y="468" width="37" height="37" fill="#eee" rx="3.7" ry="3.7"></rect><rect x="1092" y="507" width="37" height="37" fill="#a8c" rx="3.7" ry="3.7"></rect><rect x="1131" y="273" width="37" height="37" fill="#eee" rx="3.7" ry="3.7"></rect><rect x="1131" y="312" width="37" height="37" fill="#eee" rx="3.7" ry="3.7"></rect><rect x="1131" y="351" width="37" height="37" fill="#eee" rx="3.7" ry="3.7"></rect><rect x="1131" y="390" width="37" height="37" fill="#eee" rx="3.7" ry="3.7"></rect><rect x="1131" y="429" width="37" height="37" fill="#eee" rx="3.7" ry="3.7"></rect><rect x="1131" y="468" width="37" height="37" fill="#eee" rx="3.7" ry="3.7"></rect><rect x="1131" y="507" width="37" height="37" fill="#eee" rx="3.7" ry="3.7"></rect><rect x="1170" y="273" width="37" height="37" fill="#eee" rx="3.7" ry="3.7"></rect><rect x="1170" y="312" width="37" height="37" fill="#eee" rx="3.7" ry="3.7"></rect><rect x="1170" y="351" width="37" height="37" fill="#eee" rx="3.7" ry="3.7"></rect><rect x="1170" y="390" width="37" height="37" fill="#eee" rx="3.7" ry="3.7"></rect><rect x="1170" y="429" width="37" height="37" fill="#eee" rx="3.7" ry="3.7"></rect><rect x="1170" y="468" width="37" height="37" fill="#eee" rx="3.7" ry="3.7"></rect><rect x="1170" y="507" width="37" height="37" fill="#eee" rx="3.7" ry="3.7"></rect><rect x="1209" y="273" width="37" height="37" fill="#eee" rx="3.7" ry="3.7"></rect><rect x="1209" y="312" width="37" height="37" fill="#eee" rx="3.7" ry="3.7"></rect><rect x="1209" y="351" width="37" height="37" fill="#ecc" rx="3.7" ry="3.7"></rect><rect x="1209" y="390" width="37" height="37" fill="#eee" rx="3.7" ry="3.7"></rect><rect x="1209" y="429" width="37" height="37" fill="#eee" rx="3.7" ry="3.7"></rect><rect x="1209" y="468" width="37" height="37" fill="#eee" rx="3.7" ry="3.7"></rect><rect x="1209" y="507" width="37" height="37" fill="#eee" rx="3.7" ry="3.7"></rect><rect x="1248" y="273" width="37" height="37" fill="#eee" rx="3.7" ry="3.7"></rect><rect x="1248" y="312" width="37" height="37" fill="#eee" rx="3.7" ry="3.7"></rect><rect x="1248" y="351" width="37" height="37" fill="#eee" rx="3.7" ry="3.7"></rect><rect x="1248" y="390" width="37" height="37" fill="#eee" rx="3.7" ry="3.7"></rect><rect x="1248" y="429" width="37" height="37" fill="#eee" rx="3.7" ry="3.7"></rect><rect x="1248" y="468" width="37" height="37" fill="#eee" rx="3.7" ry="3.7"></rect><rect x="1248" y="507" width="37" height="37" fill="#eee" rx="3.7" ry="3.7"></rect><rect x="1287" y="273" width="37" height="37" fill="#eee" rx="3.7" ry="3.7"></rect><rect x="1287" y="312" width="37" height="37" fill="#eee" rx="3.7" ry="3.7"></rect><rect x="1287" y="351" width="37" height="37" fill="#eee" rx="3.7" ry="3.7"></rect><rect x="1287" y="390" width="37" height="37" fill="#eee" rx="3.7" ry="3.7"></rect><rect x="1287" y="429" width="37" height="37" fill="#edd" rx="3.7" ry="3.7"></rect><rect x="1287" y="468" width="37" height="37" fill="#eee" rx="3.7" ry="3.7"></rect><rect x="1287" y="507" width="37" height="37" fill="#eee" rx="3.7" ry="3.7"></rect><rect x="1326" y="273" width="37" height="37" fill="#eee" rx="3.7" ry="3.7"></rect><rect x="1326" y="312" width="37" height="37" fill="#eee" rx="3.7" ry="3.7"></rect><rect x="1326" y="351" width="37" height="37" fill="#eee" rx="3.7" ry="3.7"></rect><rect x="1326" y="390" width="37" height="37" fill="#eee" rx="3.7" ry="3.7"></rect><rect x="1326" y="429" width="37" height="37" fill="#eee" rx="3.7" ry="3.7"></rect><rect x="1326" y="468" width="37" height="37" fill="#eee" rx="3.7" ry="3.7"></rect></g><g></g><g></g></svg>